<?xml version="1.0" encoding="utf-8"?>
<svg x="0px" y="0px" viewBox="0 0 8192 8192" >
<style type="text/css">
	.apath{fill:#000000;}
</style>
<path class="apath" d="M943.2,3404.7c110.3,21.4,179.8,106.1,260.9,171.4c124.5,100.3,245.5,204.9,368,307.7
	c106,88.9,211.8,178.1,318,266.8c131.1,109.4,261.9,219.2,394.1,327.1c50.1,40.9,67.2,85.7,49.5,150.8
	c-24.5,89.9-40.1,182.2-58.6,273.7c-7.8,38.5-21.8,75.5-22.5,115.9c-2.2,129.2,51.3,227.2,158.6,298.4
	c181.7,120.6,363.2,241.4,543.5,364.2c162.6,110.8,323.1,224.6,485.1,336.3c126.6,87.3,254.3,173.1,381.3,260
	c105.3,72.1,210.6,144.4,314.8,218.1c16.5,11.7,26.4,13.6,43.3,1.9c131.3-91.1,263.5-180.8,395-271.7
	c160.9-111.2,321.1-223.4,482.1-334.5c126.6-87.3,254.1-173.4,381.1-260.2c85.6-58.6,168.8-121,257.2-175.1
	c83.4-51.1,164.5-105.6,242.8-163.4c105.3-77.7,141.6-188.6,120-314.6c-21-122.4-50.3-243.5-77.6-364.8
	c-12.2-54.2,4.1-95.2,45.9-130c166.1-138,331.3-276.9,497.2-415.1c147.7-123,296-245.2,443.6-368.3
	c91.6-76.4,182.5-153.5,273.6-230.5c34.8-29.4,77.4-44.2,117.4-63.9c33.6,0,67.2,0,100.8,0c31.5,14.8,66.5,19,96.9,39
	c44.4,29.1,77.3,67.2,102.8,112.2c78.7,139.1,156.2,278.8,234.9,417.9c109.1,193.1,218.8,386,328.3,578.9
	c79,139.3,20.2,345-119.4,422.4c-204.4,113.4-407.7,228.9-612.3,342c-111.5,61.7-225.2,119.4-336.9,180.6
	c-140.1,76.7-279.4,154.8-418.6,233.3c-40.1,22.6-81.6,21.7-115.5-8.5c-89.4-79.3-178.2-159.1-267.5-238.5
	c-64.5-57.3-141.5-62.4-222.3-53.4c-59.8,6.6-106.1,39.8-153.2,72.4c-133.4,92.3-266.9,184.5-400.6,276.6
	c-149.3,102.8-298.5,205.7-448.1,308.2c-127.9,87.6-256.6,174.1-384.3,262.1c-161.1,111-321.5,223.1-482.1,334.8
	c-31,21.6-66.4,37.2-89.5,69.6c-5.4,7.6-17.3,6.2-25.2-0.2c-139-114.8-294.1-206.8-440.6-310.9c-127.3-90.5-256.7-178.1-385.4-266.7
	c-111.1-76.5-222.6-152.4-333.7-228.9c-126.6-87.2-252.8-175-379.4-262.2c-110-75.8-217.7-155.5-331.5-225.2
	c-81.9-50.2-235.8-57.3-341.3,48.5c-75.6,75.9-157.4,145.6-236.8,217.7c-26.2,23.8-69.8,28.3-104.4,9.1
	c-135.4-75.2-270-151.9-405.8-226.5c-95-52.2-192-100.7-287-152.8c-139.9-76.8-278.8-155.3-418.1-233.1
	c-84.2-47-167.8-95.3-252.9-140.9c-82-43.8-132.7-110.5-155.7-199.5c-1.7-6.4,1.2-15-8.4-17.6c0-45.6,0-91.2,0-136.8
	c19.7-50.5,41.8-99.8,68.9-146.9c90.1-157.1,180.2-314.2,269.6-471.6c78.2-137.8,154.9-276.6,233.7-414.1
	c22.4-39.1,43.2-79.2,75.6-112.3c40.5-41.3,91.2-61.5,144.2-78.6C885.6,3404.7,914.4,3404.7,943.2,3404.7z M7541.2,3940.1
	c-2.4-4.4-4.7-8.6-7-12.8c-20.1-36.6-39.3-73.8-60.6-109.6c-27.5-46.3-28.9-46.8-73.4-16.9c-114.9,77.3-229.3,155.1-343.4,233.4
	c-133.8,91.8-267,184.5-400.7,276.5c-103.1,71-206.5,141.6-309.9,212.2c-13.9,9.5-18.2,18.5-8.3,35c26.9,45,52.2,91.1,77.1,137.2
	c7.7,14.3,14.7,14.8,27.2,5.9c36-25.5,72.8-49.9,109.2-74.9c109.3-74.9,218.6-149.7,327.8-224.6c116-79.6,231.8-159.4,347.6-239.3
	c100.2-69.1,200.2-138.5,300.2-207.8C7532.7,3950.5,7540,3947.9,7541.2,3940.1z M6828.1,5408.9c4.7-2.8,11.1-6.1,16.9-10.1
	c93.7-63.6,187.7-126.7,280.8-191.1c125.5-86.7,250.1-174.7,375.6-261.3c141.3-97.6,283.1-194.5,425.2-291
	c12.7-8.6,14.4-13.2,6.1-26.9c-27.3-44.8-53.9-90.1-77.6-136.8c-10.8-21.3-20.9-17.2-35.1-7.4c-36.4,24.9-73,49.6-109.2,74.7
	c-161.7,112.1-322.9,224.8-484.9,336.3c-160,110.2-320.7,219.3-481.2,328.6c-13.6,9.3-20,16.8-9.5,34.3c27.5,46,52.6,93.4,79,140
	C6816.7,5402.8,6818.1,5410.2,6828.1,5408.9z M1889.7,4709.1c3.8-5,8.4-10,11.8-15.7c27.7-47.3,55-94.9,82.7-142.2
	c8-13.7-1.3-19.2-10.5-25.5c-120.9-83.1-241.7-166.3-362.5-249.5c-134.6-92.8-269.1-185.7-403.8-278.4
	c-104.1-71.7-208.6-143-312.4-215.1c-16.2-11.3-24.6-10.7-34.7,7.7c-25.1,46-52.5,90.8-78.8,136.2c-5.9,10.2-7.6,17.6,5.4,26.4
	c133,90.8,265.4,182.5,398,273.9c128.7,88.7,257.4,177.3,386.1,265.9c97.3,66.9,194.6,133.9,292,200.6
	C1870.8,4698.9,1879.4,4703.1,1889.7,4709.1z M6626.3,5059.6c12.9-7.6,24.6-13.6,35.4-21c153.2-105.1,306.4-210.3,459.5-315.8
	c201.2-138.7,402.1-277.9,603.8-415.9c17.1-11.7,15.1-20.4,6.8-34.7c-25.1-43.3-50-86.7-74-130.7c-9.5-17.5-18-20.8-35.6-8.6
	c-105.7,73.5-212.2,145.8-318.2,218.9c-126.5,87.2-252.7,175-379.3,262c-127.7,87.8-255.7,175-383.7,262.2
	c-9.8,6.7-17.4,12.7-9.8,25.7c27.5,47.4,54.8,94.9,82.4,142.2C6617,5049.9,6622.2,5054.7,6626.3,5059.6z M1590.3,5246
	c1.8-10.9-5.9-13.4-11.6-17.4c-119.7-82.5-239.4-165-359.2-247.3c-129.6-89.1-259.4-177.9-389.1-267
	c-110.9-76.3-222-152.4-332.3-229.6c-19-13.3-28.1-8.6-38,9.3c-24.8,44.8-50.5,89.1-76.1,133.5c-7,12.2-6.9,20.3,6.8,28.9
	c41.2,26.2,81.8,53.4,122,81.2c161.6,111.9,322.8,224.6,484.5,336.4c153,105.8,306.5,210.7,459.6,316.3c33.6,23.1,38,22.6,57.9-12.2
	c12.5-21.7,26.3-42.7,37.5-65C1563.9,5289.4,1575.6,5266,1590.3,5246z M1788.2,4891.9c-9.1-21.4-31.2-25.7-47.4-37
	c-126-88-252.5-175.5-379-262.9c-129.5-89.4-259.4-178.3-389.1-267.6c-93.3-64.2-186.4-128.7-279.6-193.1
	c-10.6-7.3-19.9-13.4-28.8,2.9c-25.8,47-51.8,93.8-78.7,140.2c-9.2,15.9-5.8,24.7,9.4,33.9c23.5,14.1,45.8,30.2,68.3,45.8
	c125.4,86.8,250.7,173.8,376.3,260.4c128.6,88.7,257.4,177,386.2,265.5c82.5,56.7,165.2,113.2,247.5,170.2
	c12.9,8.9,21.1,12.1,30.3-5.2c24-45.2,49.7-89.5,74.7-134.2C1781.9,4904.7,1785,4898.3,1788.2,4891.9z"/>
<path class="apath" d="M5887.6,7624.7c-0.1,126.9-88.5,224-195.2,220.8c-52.8-1.6-94-30.7-135.3-59.7
	c-124.8-87.6-247.7-178.3-375.9-260.7c-176.4-113.4-346.8-235.6-522.7-349.6c-31.7-20.6-29.6-35.3-10.6-66.3
	c57.4-93.4,109.6-190,162.7-286c11.9-21.6,19-25.3,42-9.3c134.2,93.2,270.4,183.4,405.4,275.4c146.8,100.1,292.9,201.2,439.4,301.8
	c35.4,24.3,70,49.9,106.7,72.2C5868.2,7502.3,5883.5,7564,5887.6,7624.7z M5744.2,7545.8c-1.3-10.1-10.1-12.8-16.3-18.1
	c-38.4-32.6-87-49.2-126.2-80.4c-10.8-8.6-15.6-5.4-24.3,6.4c-31.9,43.5-53.8,92.8-83.6,137.3c-5.7,8.5-12.5,17.2,1.9,26.8
	c44.7,29.6,88.5,60.5,132.4,91.2c11,7.7,20.2,12.2,28.7-3.5c26.7-49.3,53.9-98.2,81-147.3C5740,7554,5742.1,7549.8,5744.2,7545.8z"
	/>
<path class="apath" d="M2427.5,7607.5c-1.4-66.4,48.4-123.9,121.5-171.3c118.1-76.6,233-158,349.4-237.3
	c110.5-75.3,221-150.5,331.5-225.8c79.8-54.4,160.1-108.2,239-163.9c18.1-12.8,22.5-9.7,32.7,8.5
	c57.1,101.9,115.8,202.9,175.1,303.6c11.9,20.2,11.7,33.1-8.8,46.9c-109.8,73.9-217.9,150.5-328.9,222.6
	c-200,129.9-396.2,265.2-590.8,402.9c-48.4,34.3-98.4,61.3-162.5,47.9C2488.8,7821.3,2427.4,7724.1,2427.5,7607.5z M2828.2,7605.1
	c-1-2.2-2.2-5.6-4-8.6c-28.8-49.4-57.7-98.8-86.3-148.2c-6-10.4-12.9-8.1-20.8-3.1c-45,28.7-90,57.6-135.2,86
	c-11.8,7.4-11.7,14.9-5,26.5c26.7,46.5,52.3,93.7,78.4,140.5c8.7,15.6,17.9,22.4,36.1,9c41.1-30.5,83.9-58.7,125.9-88.1
	C2821.9,7615.9,2828.5,7613.8,2828.2,7605.1z"/>
<path class="apath" d="M3776.7,6561.9c53.9,94.2,107.7,188.3,161.5,282.4c2.4,4.1,4.1,8.7,6.3,12.9c11.1,21.8,39.6,42.9,30.8,64.2
	c-8.1,19.5-38.1,30-58.7,44.2c-31.4,21.6-63.2,42.7-94.5,64.6c-9.7,6.8-15.2,12.5-23.9-3.1c-60.6-108.2-122-216-184.2-323.3
	c-11-18.9-8.1-28.7,10-40.2C3675.1,6630.9,3725.1,6596.4,3776.7,6561.9z"/>
<path class="apath" d="M4510.7,7039.6c-56.4-37.5-110.8-74.1-165.8-109.8c-14.1-9.2-7.2-17.5-1.9-26.7
	c59.7-104.5,119.6-208.9,178.9-313.7c11.7-20.7,21.7-27.2,44.2-10.3c42,31.4,86.7,59.2,130.5,88.2c14,9.2,16,16.6,6.5,33
	C4638.1,6812.6,4574.9,6925.9,4510.7,7039.6z"/>
<path d="M3786.9,503.1c201.5,0,403.1,0,604.6,0c3.1,9.8,11.5,6.4,17.9,6.8c88.4,5.8,176.3,14.6,264,29.2
	c210.9,35.2,413.9,94.3,607.4,186.3c147.4,70.1,282.9,158.2,405.5,265.6c236.3,206.9,393.1,465.5,487.1,762.9
	c60.3,190.6,88.2,387.5,95.6,586.6c7.1,189.5-4.5,378.3-35.6,565.9c-30,181.1-77.7,356.7-147.6,526.7
	c-76.5,185.9-177.5,356.9-305.7,510.9c-143.8,172.8-314.5,315.5-509.6,427.8c-19.3,11.1-22.8,23-22.7,42.2
	c0.6,88.8,4.4,177.8-1.2,266.2c-8,125.7-65.2,224.7-177,289.1c-67.9,39.1-142.1,41-216.3,37c-126.1-6.9-217.2-68.8-276.1-181.3
	c-28.9-55.1-37.8-113-37.8-173.2c0-20.6-5.4-28.9-26.3-24.2c-9.3,2.1-19,4.1-28.5,3.8c-28.9-1.1-37.2,10.8-36,40.2
	c2.8,69-19.3,132.3-57.3,189.3c-72.4,108.6-176.5,147.2-304.5,147.4c-190,0.4-326.3-149.2-337.3-322.7c-3.3-51.3-2.9-50.4-54.5-57.6
	c-24-3.3-34.2,0.4-32.4,27.9c3.6,54.9-12,107.2-34,156.3c-29.8,66.7-76.6,119.1-141.7,155.8c-64.7,36.5-134.2,38.9-205.1,39.1
	c-174.5,0.6-303.4-132.9-323.1-287.4c-13.1-102.7-3.3-206-5.2-309.1c-0.3-17.4-4.6-27-20.5-36.2
	c-196.3-112.8-368.3-255.2-513.4-428.9c-136.4-163.4-243.9-345.2-321.5-543.1c-83.3-212.5-134.9-433.3-155.5-661.1
	c-2.8-31.1,2.4-63.8-12.9-93.3c0-134.4,0-268.7,0-403.1c11.5-3.8,6.7-13.9,7.5-21.3c7.6-75,15.4-149.7,28.7-224.1
	c43.3-242.6,125.9-469.7,259.8-677c100-154.9,224-288.7,370.3-400.7c125.5-96.1,262.1-173.4,408.2-234.7
	c223.5-93.8,456.4-147.1,696.9-170.9C3729.8,513.4,3760,518.2,3786.9,503.1z M3607.6,3102c-3.1-136.7-85-313.3-250-448.1
	c-179.5-146.7-381.1-190.1-600-104.6c-163.8,63.9-265.6,189.8-315.1,356.9c-42.3,142.7-32.5,284.3,25.4,421
	c100.3,236.7,273.1,385.1,532.3,418.6c157.1,20.3,300.4-22.1,418.8-128.1C3548.5,3501.6,3609.6,3352.5,3607.6,3102z M4589.5,3176
	c-1.8,61.1,8.6,119.7,25.8,177.4c44.4,149.2,132.8,265,270.8,336.5c149.1,77.2,306.2,81.8,461.8,20.1
	c242.9-96.2,378.4-282.1,425.9-534.2c22.7-120.7,3.3-238.2-48.1-350.1c-70.5-153.3-186-257.1-348.9-299.2
	c-173.4-44.8-336.3-13.1-484.5,89.6C4696.2,2751.8,4600.7,2941.2,4589.5,3176z M3827.9,3834c184,0,362.2,0,542.8,0
	c-2.2-6.5-3-11.1-5.1-15c-54.5-101.9-113.8-201.6-162.1-306.4c-29.3-63.5-61.2-103.1-137-87.7c-16.9,3.4-27.6,6.7-35.4,22.7
	c-18.9,38.6-39.5,76.3-59.5,114.2C3924.4,3651.2,3877.3,3740.6,3827.9,3834z"/>
</svg>
