<?xml version="1.0" encoding="UTF-8"?>
<svg width="24px" height="36px" viewBox="0 0 24 36" version="1.1" xmlns="http://www.w3.org/2000/svg" xmlns:xlink="http://www.w3.org/1999/xlink">
    <!-- Generator: Sketch 51.3 (57544) - http://www.bohemiancoding.com/sketch -->
    <title>Group</title>
    <desc>Created with Sketch.</desc>
    <defs></defs>
    <g id="Page-1" stroke="none" stroke-width="1" fill="none" fill-rule="evenodd">
        <g id="Desktop-Copy-2" transform="translate(-959.000000, -1128.000000)" fill="#FFFFFF" fill-rule="nonzero">
            <g id="Group-2" transform="translate(941.000000, 1115.000000)">
                <g id="Group" transform="translate(18.000000, 13.000000)">
                    <path d="M20.3368421,0.209302326 L4.08421053,0.209302326 C3.11233803,0.208189806 2.17994917,0.591527448 1.49273108,1.27475008 C0.805512989,1.95797272 0.419933606,2.88494071 0.421052632,3.85116279 L0.421052632,14.2827907 C0.325498673,14.519185 0.325498673,14.7831406 0.421052632,15.0195349 L0.421052632,29.6372093 C0.420660581,31.4540517 1.76869578,32.9925988 3.57894737,33.2413953 L3.57894737,34.9534884 C3.57894737,35.5314608 4.05022658,36 4.63157895,36 C5.21293132,36 5.68421053,35.5314608 5.68421053,34.9534884 L5.68421053,33.2790698 L18.7368421,33.2790698 L18.7368421,34.9534884 C18.7368421,35.5314608 19.2081213,36 19.7894737,36 C20.3708261,36 20.8421053,35.5314608 20.8421053,34.9534884 L20.8421053,33.2413953 C22.6523569,32.9925988 24.0003921,31.4540517 24,29.6372093 L24,3.85116279 C24.001119,2.88494071 23.6155396,1.95797272 22.9283216,1.27475008 C22.2411035,0.591527448 21.3087146,0.208189806 20.3368421,0.209302326 Z M21.8947368,29.6372093 C21.8947368,30.4926085 21.1972436,31.1860465 20.3368421,31.1860465 L4.08421053,31.1860465 C3.22380902,31.1860465 2.52631579,30.4926085 2.52631579,29.6372093 L2.52631579,15.6976744 L21.8947368,15.6976744 L21.8947368,29.6372093 Z M21.8947368,13.6046512 L2.52631579,13.6046512 L2.52631579,3.85116279 C2.52631579,2.99576362 3.22380902,2.30232558 4.08421053,2.30232558 L20.3368421,2.30232558 C21.1972436,2.30232558 21.8947368,2.99576362 21.8947368,3.85116279 L21.8947368,13.6046512 Z" id="Shape"></path>
                    <path d="M5.68421053,5.23255814 C5.10285816,5.23255814 4.63157895,5.70109735 4.63157895,6.27906977 L4.63157895,9.62790698 C4.63157895,10.2058794 5.10285816,10.6744186 5.68421053,10.6744186 C6.26556289,10.6744186 6.73684211,10.2058794 6.73684211,9.62790698 L6.73684211,6.27906977 C6.73684211,5.70109735 6.26556289,5.23255814 5.68421053,5.23255814 Z" id="Shape"></path>
                    <path d="M5.68421053,27.4186047 C6.26556289,27.4186047 6.73684211,26.9500654 6.73684211,26.372093 L6.73684211,19.255814 C6.73684211,18.6778415 6.26556289,18.2093023 5.68421053,18.2093023 C5.10285816,18.2093023 4.63157895,18.6778415 4.63157895,19.255814 L4.63157895,26.372093 C4.63157895,26.9500654 5.10285816,27.4186047 5.68421053,27.4186047 Z" id="Shape"></path>
                </g>
            </g>
        </g>
    </g>
</svg>