<?xml version="1.0" encoding="UTF-8"?>
<svg width="638px" height="512px" viewBox="0 0 638 512" version="1.1" xmlns="http://www.w3.org/2000/svg" xmlns:xlink="http://www.w3.org/1999/xlink">
    <!-- Generator: Sketch 51.3 (57544) - http://www.bohemiancoding.com/sketch -->
    <title>Group 4</title>
    <desc>Created with Sketch.</desc>
    <defs></defs>
    <g id="Assets" stroke="none" stroke-width="1" fill="none" fill-rule="evenodd">
        <g id="Group-4" fill-rule="nonzero">
            <g id="Logo" fill="#000000">
                <path d="M637.543385,87.9911934 L637.543385,455.995176 C637.559574,463.165636 633.90118,469.844735 627.849579,473.693077 C530.814299,529.318189 410.395831,524.012391 318.631203,460.068502 C201.603076,383.518056 80.5007403,415.121451 42.1469845,428.324647 C14.0489948,441.892843 0,444.933362 0,437.446204 C5.70870614e-16,429.959046 5.70870614e-16,299.381269 0,45.7128733 C0.0181823145,37.4321876 4.92098936,29.9418795 12.5036054,26.6103765 C19.2471229,23.5202668 181.934483,-47.8331771 341.671554,56.8091766 C419.595037,111.561682 522.030531,116.750624 605.090207,70.1528325 C611.608799,66.0921486 619.812876,65.8684333 626.543168,69.5678361 C633.27346,73.267239 637.480181,80.3127294 637.543385,87.9911934 Z" id="Shape-Copy"></path>
            </g>
            <g id="Group-3-Copy" transform="translate(152.000000, 104.000000)" fill="#FFFFFF">
                <g id="Group-Copy" transform="translate(118.020655, 185.645945) scale(1, -1) rotate(13.000000) translate(-118.020655, -185.645945) translate(19.520655, 87.645945)">
                    <path d="M144,56.1906111 L138.845158,51 L78.1171835,112.149363 C74.7884885,115.501278 69.7031402,116.332291 65.4925601,114.212392 L53.8267227,108.338999 C52.5310718,107.688217 50.9757513,107.871195 49.8639836,108.8052 L3.92974897,147.349341 C1.57190686,149.330465 0.149860334,152.218479 0.0111733471,155.307522 C-0.12751364,158.396566 1.02993796,161.402003 3.20063413,163.589273 L32.1756577,192.769024 C34.3241503,194.993309 37.3277081,196.165817 40.4037186,195.981035 C43.4776954,195.858727 46.3534469,194.420223 48.3073234,192.027508 L86.5858523,145.774538 C87.5134212,144.655056 87.6951375,143.088943 87.0488402,141.784301 L81.2159215,130.037515 C79.1097036,125.798484 79.9335052,120.677948 83.2610886,117.32529 L144,56.1906111 Z M12.533304,157.42221 L48.6244884,121.080591 L53.7756847,126.274873 L17.6845003,162.616492 L12.533304,157.42221 Z M28.0014753,172.994044 L22.8466334,167.803432 L58.9378177,131.461813 L64.0963052,136.656095 L28.0014753,172.994044 Z M38.311159,183.378937 L33.1526716,178.188325 L69.2438559,141.846706 L74.3986978,147.037317 L38.311159,183.378937 Z" id="Shape"></path>
                    <rect id="Rectangle-path" transform="translate(152.000000, 46.500000) rotate(-45.000000) translate(-152.000000, -46.500000) " x="148" y="39" width="8" height="15"></rect>
                    <path d="M194.833021,2.16697908 C193.44612,0.779515936 191.564741,3.28400092e-15 189.602969,0 C187.641197,-3.28400092e-15 185.759818,0.779515936 184.372917,2.16697908 L153,33.5435935 L163.456407,44 L194.833021,12.627083 C196.220484,11.2401819 197,9.35880291 197,7.39703106 C197,5.43525921 196.220484,3.55388024 194.833021,2.16697908 Z M186.987019,15.2411847 L181.758815,10.0129814 L186.987019,4.78477816 L192.215222,10.0129814 L186.987019,15.2411847 Z" id="Shape"></path>
                </g>
                <g id="Group-Copy-2" transform="translate(217.020655, 185.645945) scale(-1, -1) rotate(13.000000) translate(-217.020655, -185.645945) translate(118.520655, 87.645945)">
                    <path d="M144,56.1906111 L138.845158,51 L78.1171835,112.149363 C74.7884885,115.501278 69.7031402,116.332291 65.4925601,114.212392 L53.8267227,108.338999 C52.5310718,107.688217 50.9757513,107.871195 49.8639836,108.8052 L3.92974897,147.349341 C1.57190686,149.330465 0.149860334,152.218479 0.0111733471,155.307522 C-0.12751364,158.396566 1.02993796,161.402003 3.20063413,163.589273 L32.1756577,192.769024 C34.3241503,194.993309 37.3277081,196.165817 40.4037186,195.981035 C43.4776954,195.858727 46.3534469,194.420223 48.3073234,192.027508 L86.5858523,145.774538 C87.5134212,144.655056 87.6951375,143.088943 87.0488402,141.784301 L81.2159215,130.037515 C79.1097036,125.798484 79.9335052,120.677948 83.2610886,117.32529 L144,56.1906111 Z M12.533304,157.42221 L48.6244884,121.080591 L53.7756847,126.274873 L17.6845003,162.616492 L12.533304,157.42221 Z M28.0014753,172.994044 L22.8466334,167.803432 L58.9378177,131.461813 L64.0963052,136.656095 L28.0014753,172.994044 Z M38.311159,183.378937 L33.1526716,178.188325 L69.2438559,141.846706 L74.3986978,147.037317 L38.311159,183.378937 Z" id="Shape"></path>
                    <rect id="Rectangle-path" transform="translate(152.000000, 46.500000) rotate(-45.000000) translate(-152.000000, -46.500000) " x="148" y="39" width="8" height="15"></rect>
                    <path d="M194.833021,2.16697908 C193.44612,0.779515936 191.564741,3.28400092e-15 189.602969,0 C187.641197,-3.28400092e-15 185.759818,0.779515936 184.372917,2.16697908 L153,33.5435935 L163.456407,44 L194.833021,12.627083 C196.220484,11.2401819 197,9.35880291 197,7.39703106 C197,5.43525921 196.220484,3.55388024 194.833021,2.16697908 Z M186.987019,15.2411847 L181.758815,10.0129814 L186.987019,4.78477816 L192.215222,10.0129814 L186.987019,15.2411847 Z" id="Shape"></path>
                </g>
                <path d="M165.119871,0.0605785811 C118.633292,-1.31068499 80.711531,20.5625807 81.0016537,69.3007098 C80.999174,101.511765 96.3409601,125.510118 120.582321,137.9234 L120.582321,147.653669 C120.582321,154.472791 126.10953,160 132.928653,160 L135.673659,160 C142.492782,160 148.019991,154.472791 148.019991,147.653669 L148.019991,146.406389 C149.138327,146.565089 150.264102,146.703951 151.399796,146.825455 L151.399796,147.653669 C151.399796,154.472791 156.927005,160 163.746127,160 L166.491134,160 C173.310257,160 178.837466,154.472791 178.837466,147.653669 L178.837466,146.825455 C179.97316,146.703951 181.101414,146.565089 182.217271,146.406389 L182.217271,147.653669 C182.217271,154.472791 187.74448,160 194.563602,160 L197.308609,160 C204.127732,160 209.654941,154.472791 209.654941,147.653669 L209.654941,137.9234 C233.896302,125.510118 249.238088,101.511765 249.235608,69.3007098 C249.52821,20.5625807 211.608929,-1.31068499 165.119871,0.0605785811 Z M131.954138,114.284602 C128.234616,115.504605 124.331599,115.69802 120.579841,115.030986 C112.513439,113.59773 105.136388,108.169709 101.749144,100.259526 C96.7848229,88.6694977 102.257479,76.1595073 113.973971,72.3160018 C122.704928,69.4519703 132.432716,72.2143349 138.882366,78.6019931 C141.086803,80.786592 142.914328,83.390257 144.178965,86.343557 C149.145766,97.9311061 143.67063,110.441096 131.954138,114.284602 Z M154.387811,118.388474 L162.761694,103.8873 L167.478047,103.8873 L175.85193,118.388474 L154.387811,118.388474 Z M228.488117,100.259526 C225.100873,108.169709 217.723822,113.59773 209.65742,115.030986 C205.905663,115.69802 202.002645,115.504605 198.283124,114.284602 C186.566631,110.441096 181.093975,97.9311061 186.058297,86.3410773 C187.322934,83.3877773 189.150459,80.7841123 191.354895,78.5995134 C197.804545,72.2143349 207.532334,69.4494907 216.26329,72.3135222 C227.979783,76.1595073 233.454918,88.6694977 228.488117,100.259526 Z" id="Shape"></path>
            </g>
        </g>
    </g>
</svg>